<?xml version="1.0" encoding="utf-8"?>
<!-- Generator: Adobe Illustrator 26.4.1, SVG Export Plug-In . SVG Version: 6.00 Build 0)  -->
<svg version="1.1" xmlns="http://www.w3.org/2000/svg" xmlns:xlink="http://www.w3.org/1999/xlink" x="0px" y="0px"
	 viewBox="0 0 120 50" style="enable-background:new 0 0 120 50;" xml:space="preserve">
<style type="text/css">
	.st0{fill:#231815;}
</style>
<g id="レイヤー_1">
</g>
<g id="文字">
	<path class="st0" d="M119,31.7c-0.1-0.2-0.2-0.4-0.4-0.4c-0.2-0.1-0.4-0.1-0.6,0c-0.2,0.1-0.3,0.3-0.4,0.6c-0.1,0.3-0.1,0.6,0,0.9
		c0.1,0.2,0.1,0.4,0,0.6c-0.1,0.2-0.2,0.3-0.4,0.4c0,0,0,0-0.1,0.1c-0.1,0.1-0.3,0.3-0.4,0.3c-0.3,0.2-0.6,0.4-1,0.3
		c0.2-0.4,0.5-0.9,0.6-1.4c0.7-2,0.7-2.9,0.7-4c-0.1-1.3-0.3-2-0.6-2.5c-0.3-0.7-0.6-1.1-1.1-1.6c-0.6-0.6-1.6-0.9-2.7-1
		c-1.8,0-3.3,0.7-4.5,2.2c-1.1,1.5-1.8,3.4-2,5.7c0,0.5,0,1.7,0.1,2.1c-0.3,0.4-2.7,3.3-4.8,2.4c-1.7-0.7-3.5-2.8-3.8-3.3
		c1.2,0,2.3-0.1,3.4-0.4c1.1-0.2,2-0.8,2.9-1.7c0.6-0.6,1-1.3,1.3-2c0.3-0.8,0.4-1.5,0.4-2.1c-0.1-0.7-0.3-1.2-0.7-1.7
		c-0.4-0.5-1-0.8-1.8-0.9c-0.6,0-1.3,0.1-2,0.4c-0.7,0.3-1.3,0.7-1.9,1.3c-0.6,0.5-1.1,1.1-1.5,1.6c-0.4,0.6-0.7,0.8-0.9,1.2
		c0-0.1,0.1-0.3,0.2-0.8c0.2-0.8,0.3-1,0.6-1.3c0.8-1,1.9-2.1,2.7-3.4c0.9-1.5,1.6-3,1.9-4.3c0.4-1.7,0.4-3.9-0.3-4.8
		c-0.9-1.2-1.8-1.5-3.1-1.5c-0.8,0-1.4,1.2-1.6,2c-0.2,0.8-0.7,2.7-1,3.9c-0.3,1.2-0.5,2.5-0.7,3.9c-0.2,1.4-0.4,2.9-0.7,4.4
		c-0.2,1.5-0.4,3.1-0.5,4.6c0,0.6-0.1,1.1-0.1,1.5c-0.5,0.8-1.3,1.5-1.9,2.1c-0.8,0.7-1.6,1.3-2.4,1.6C89,37,88.2,37.1,87.4,37
		c-1-0.2-1.7-0.9-2.1-1.8c-0.4-1-0.4-2.1-0.1-3.5c0.5,0.4,1,0.6,1.3,0.7c0.3,0.1,0.8,0.2,1.2,0.2c1.2,0,2.1-0.4,3-1.1
		c0.9-0.7,1.5-1.6,1.9-2.5c0.4-0.9,0.4-1.8,0.2-2.7c-0.3-0.9-0.9-1.5-2-1.8c-0.9-0.3-1.9-0.3-2.8,0c-1,0.3-1.8,0.8-2.6,1.5
		c-0.8,0.7-1.4,1.6-2,2.7c-0.5,1.1-0.8,2.2-0.9,3.5c0,0.4,0,0.9,0.1,1.5c-0.3,0.6-0.6,1.2-0.9,1.7c-0.4,0.6-0.8,1.1-1.1,1.4
		c-0.4,0.3-0.7,0.4-1,0.3c-0.3-0.1-0.5-0.5-0.5-1.2c0-0.6,0.1-1.4,0.2-2.3c0.2-0.9,0.4-1.8,0.6-2.8c0.3-1,0.5-2,0.8-2.8
		c0.3-1.1,0.4-1.9,0.2-2.5c-0.2-0.6-0.7-0.9-1.6-1.1c-0.6-0.1-1.2,0-1.9,0.2c-0.7,0.2-1.5,0.9-2.2,1.8c-0.6,0.8-1.2,1.7-1.7,2.6
		c-0.5,0.9-1.1,1.9-1.7,2.8c0.1-0.5,0.3-1.4,0.6-2.7c0.3-1.2,0.7-2.4,1.3-3.5c0.1-0.2-0.1-0.4-0.3-0.7c-0.3-0.2-0.6-0.4-1-0.6
		c-0.4-0.1-0.8-0.1-1.2,0c-0.4,0.1-0.7,0.5-0.9,1.1c-0.2,0.5-0.3,1.2-0.5,2c-0.2,0.8-0.3,1.7-0.4,2.7c-0.1,1-0.2,1.9-0.2,2.9
		c0,0.7,0,1.3,0,1.9c-0.1,0.2-0.2,0.4-0.3,0.5c-0.6,1.1-1.3,1.6-1.9,1.5c-0.3,0-0.5-0.4-0.5-1c0-0.6,0-1.3,0.2-2.1
		c0.1-0.8,0.3-1.6,0.5-2.5c0.2-0.8,0.4-1.5,0.5-2.1c0.2-0.6,0.2-1,0-1.2c-0.1-0.2-0.2-0.5-0.3-0.7c-0.3-0.6-0.8-1.4-1.8-2.1
		c-0.9-0.8-2.1-1.2-3.4-1.1c-1.2,0.1-2.3,0.4-3.1,1c-0.8,0.6-1.5,1.3-2,2.1c-0.5,0.8-0.9,1.7-1.2,2.7c-0.3,1-0.4,1.9-0.5,2.8
		c0,0.3,0,0.6,0,0.9c-0.1,0.1-0.1,0.3-0.2,0.4c-0.4,0.8-0.9,1.5-1.4,2.1c-0.5,0.6-1,0.9-1.5,0.8c-0.5,0-0.8-0.8-0.8-1.6
		s0.6-4.4,1.1-6.1c0.5-1.6,0.8-2.7,1.1-3.1c0.2-0.3,0.2-0.7,0-1c-0.2-0.3-0.5-0.6-1-0.7c-0.4-0.2-0.8-0.2-1.3-0.1
		c-0.5,0.1-0.8,0.3-1,0.8c-0.2,0.3-0.2,0.6-0.2,0.7c0,0.1-0.1,0.3-0.2,0.4c-0.6,0.2-1.1,0.3-1.4,0.4c-0.3,0-0.8,0.1-1.3,0.2
		c0.2-0.5,0.3-1.1,0.3-1.7c0.1-0.6,0-1.1-0.2-1.4c-0.2-0.5-0.5-0.9-1-1.3c-0.5-0.3-1.2-0.4-2-0.1c-0.7,0.2-1.1,0.7-1.3,1.4
		c-0.2,0.7-0.2,1.3,0,1.8c0.2,0.7,0.6,1.2,1.1,1.5c0.6,0.3,1.1,0.6,1.5,0.7c-0.1,0.4-0.3,1.9-1.5,4.5c-0.7,1.5-1.8,2.4-2.1,2.7
		c-0.8,0.7-2.2,1.6-3,1.9c-0.9,0.3-1.7,0.4-2.4,0.3c-1-0.2-1.7-0.9-2.1-1.8c-0.4-1-0.4-2.1-0.1-3.5c0.5,0.4,0.9,0.6,1.3,0.7
		c0.4,0,0.7,0.1,1.1,0.1c1.2,0,2.2-0.3,3.1-1c0.9-0.7,1.5-1.6,1.9-2.5c0.4-0.9,0.4-1.8,0.2-2.7c-0.3-0.9-0.9-1.5-2-1.8
		c-0.9-0.3-1.9-0.3-2.8,0c-1,0.3-1.8,0.8-2.6,1.5c-0.8,0.7-1.4,1.6-2,2.7c-0.5,1.1-0.8,2.2-0.9,3.5c0,0.5,0,1.1,0.1,1.7
		c0.1,0.6,0.2,1.3,0.5,1.8c0.3,0.6,0.7,1.1,1.3,1.5c0.6,0.4,1.5,0.8,2.6,0.9c1.4,0.1,2.6-0.2,3.7-0.6c1.1-0.5,2.3-1.2,3.1-2
		c1.8-1.8,2.9-2.9,4.1-8l2.8-0.1c0,0-1.1,8.4-1.2,10.1c-0.1,1.7-0.3,3.2-0.7,4.7c-0.3,1.5-0.8,2.7-1.5,3.8c-0.7,1-1.6,1.8-2.9,1.8
		c-0.6,0-1.1-0.1-1.6-0.4c-0.5-0.3-1-0.8-1.3-1.4c-0.3-0.6-0.5-1.4-0.5-2.2c0-0.9,0.3-1.8,0.8-2.8c0.2-0.4,0.4-0.6,0.8-0.6
		c0.4,0,0.7-0.1,1-0.4c0.3-0.2,0.4-0.5,0.4-0.7c0-0.2-0.1-0.4-0.3-0.6c-0.2-0.1-0.4-0.2-0.7-0.2c-0.3,0-0.6,0.2-0.9,0.5
		c-0.4,0.4-0.7,0.8-0.9,1.1c-0.2,0.3-0.3,0.6-0.4,0.8c-0.4,1-0.6,2-0.6,2.9c0,0.9,0.2,1.7,0.5,2.5c0.4,0.7,0.9,1.3,1.5,1.8
		c0.7,0.4,1.5,0.7,2.4,0.7c1.2,0,2.3-0.4,3.1-1c0.8-0.6,1.5-1.4,2.1-2.4c0.6-1,1-2.2,1.3-3.4c0.3-1.3,0.6-2.6,0.7-3.8
		c0.1,0,0.2,0.1,0.4,0.1c0.7,0.1,1.4-0.1,2-0.5c0.6-0.4,1.2-1,1.7-1.7c0.1-0.2,0.2-0.3,0.4-0.5c0.1,0.6,0.3,1,0.6,1.4
		c0.7,0.9,1.5,1.3,2.4,1.3c0.6,0,1.3-0.2,2.1-0.7c0.8-0.5,1.8-1.5,2.8-3.1c0.1,0.3,0.1,0.6,0.2,1c0.1,0.4,0.2,0.8,0.4,1.1
		c0.2,0.4,0.4,0.7,0.8,1c0.3,0.3,0.8,0.5,1.3,0.6c0.8,0.1,1.4-0.1,2-0.5c0.4-0.3,0.8-0.7,1.1-1.1c0.1,0.4,0.2,0.7,0.3,0.9
		c0.2,0.4,0.5,0.6,0.8,0.7c0.3,0.1,0.5,0.1,0.8,0c0.3-0.1,0.4-0.3,0.5-0.6c0-0.1,0-0.2,0-0.3c0-0.1,0-0.3,0-0.4
		c0.1-0.4,0.1-0.8,0.2-1.2c0.1-0.4,0.1-0.8,0.2-1.2c0.4-1,1-2.2,1.6-3.5c0.7-1.4,1.5-2.7,2.6-3.9c0.4-0.4,0.8-0.7,1-0.8
		c0.3-0.1,0.3,0.4,0.1,1.4c-0.1,0.9-0.3,1.9-0.5,3c-0.2,1.1-0.3,2.4-0.3,3.7c-0.1,0.9,0.1,1.7,0.3,2.4c0.3,0.7,0.9,1.2,2,1.4
		c0.7,0.1,1.4,0,2-0.3c0.6-0.4,1.1-0.9,1.6-1.6c0.2-0.2,0.3-0.5,0.5-0.8c0.1,0.1,0.1,0.3,0.2,0.4c0.3,0.6,0.7,1.1,1.3,1.5
		c0.6,0.4,1.4,0.7,2.4,0.7c1.4,0.1,2.6-0.1,3.7-0.6c1.1-0.5,1.7-0.9,2.7-1.8c0.3-0.2,0.8-0.7,1-1c0,0.4,0,0.8,0.1,1.1
		c0.2,1,0.5,1.6,1.1,2c0.2,0.1,0.4,0.2,0.7,0.2c0.3,0,0.4,0,0.3-0.3c-0.1-0.2-0.1-0.4-0.2-0.6c-0.1-0.2-0.1-0.5-0.2-0.8
		c-0.1-0.3-0.1-0.8,0-1.3c0-0.5,0.1-1.1,0.2-1.9c0.8,1.4,1.7,2.5,2.9,3.5c1.2,1,2.7,1.7,4.3,1c1.5-0.6,2.4-1.6,3-2.5
		c0.1,0.5,0.2,0.5,0.4,1c0.2,0.6,0.6,1.1,1.1,1.5c0.5,0.4,1.5,0.8,2.4,0.8c1.1,0,2-0.4,2.8-0.9c0.7-0.5,1.5-1.3,2.1-2.3
		c0.8,0.2,1.7,0.1,2.6-1c0,0,0,0,0,0c0.2-0.2,0.3-0.3,0.5-0.6c0.2-0.3,0.4-0.6,0.5-1.1C119,32.1,119,31.9,119,31.7z M99.7,16.7
		c0.1-0.5,0.2-1,0.6-1.3c0.6-0.4,1,0.2,1,0.9c0,0.7-0.2,2.3-0.5,3.3c-0.3,1.1-1,2.2-1.5,3.2c-0.5,1.1-1.1,1.8-1.6,2.2
		C97.9,24.2,99.5,17.3,99.7,16.7z M86,29.1c0.3-0.6,0.7-1.2,1.1-1.7c0.5-0.5,1-0.9,1.6-1.3c0.6-0.3,1.2-0.4,1.8-0.3
		c0.7,0.1,1.1,0.5,1.2,1.3c0.1,0.8-0.1,1.6-0.6,2.4c-0.5,0.8-1.2,1.4-2.2,1.8c-1,0.4-2.2,0.2-3.6-0.4C85.3,30.9,85.7,29.7,86,29.1z
		 M34.9,29.1c0.3-0.6,0.7-1.2,1.1-1.7c0.5-0.5,1-0.9,1.6-1.3c0.6-0.3,1.2-0.4,1.8-0.3c0.7,0.1,1.1,0.5,1.2,1.3
		c0.1,0.8-0.1,1.6-0.6,2.4c-0.5,0.8-1.2,1.4-2.2,1.8c-1,0.4-2.2,0.2-3.6-0.4C34.2,30.9,34.6,29.7,34.9,29.1z M45.8,26.4
		c-0.2,0-0.4-0.1-0.7-0.4c-0.2-0.2-0.4-0.5-0.5-0.8c-0.1-0.3-0.2-0.6-0.2-0.9c0-0.3,0.2-0.5,0.5-0.6c0.6-0.1,0.9,0,1,0.6
		C46,24.8,45.9,25.5,45.8,26.4z M65.4,27.4c-0.5,0-0.8,0.1-1,0.3c-0.2,0.2-0.3,0.4-0.4,0.6l-0.2,0.2c-0.3,0.8-0.5,1.6-0.8,2.3
		c-0.3,0.7-0.5,1.4-0.8,2.1c-0.6,1.2-1.1,2.2-1.7,2.9c-0.6,0.7-1.2,1.1-1.8,1.1c-0.7,0-1.1-0.6-1.2-1.7c-0.1-1.2,0-2.4,0.3-3.8
		c0.4-1.4,0.9-2.6,1.8-3.8c0.8-1.2,1.9-1.7,3.2-1.7c0.9,0,1.6,0.2,2.1,0.5c0.5,0.3,0.8,0.7,0.9,1.1H65.4z M96.7,31.1
		c0-0.9,0.2-0.9,0.7-1.5c0.4-0.4,0.8-0.9,1.2-1.4c0.4-0.5,0.8-0.9,1.3-1.3c0.5-0.4,0.9-0.6,1.4-0.7c0.6-0.1,1-0.1,1.3,0.1
		c0.3,0.2,0.5,0.5,0.7,0.9c0.1,0.4,0.1,0.8,0,1.3c-0.1,0.5-0.2,1-0.4,1.5c-0.6,1.1-1.4,1.8-2.4,2.1c-0.9,0.2-2,0.4-3.1,0.4
		C96.9,32.1,96.7,31.4,96.7,31.1z M114.3,31.2c-0.4,0.3-0.7,0.7-0.8,1.1c-0.1,0.5-0.2,1-0.1,1.4c0.1,0.5,0.3,0.8,0.6,0.9
		c-0.3,0.6-0.7,1.1-1.2,1.5c-0.6,0.5-1.2,0.9-2,0.9c-0.6,0-1.2-0.3-1.5-0.9c-0.3-0.6-0.5-1.3-0.6-2.2c-0.1-0.9,0-1.9,0.2-2.9
		c0.2-1,0.5-2,0.9-2.9c0.4-0.9,0.9-1.6,1.6-2.2c0.6-0.6,1.4-0.8,2.2-0.8c0.5,0,0.9,0.2,1.2,0.7c0.3,0.4,0.6,1,0.8,1.5
		c0.2,0.6,0.3,1.2,0.3,1.8c0,0.6,0,1.1-0.2,1.5C115.1,30.7,114.6,30.9,114.3,31.2z M30.8,9.2c-1.7-2.5-3.4-3.3-5.7-4.2
		c-1.7-0.7-3.6-1-5.8-1l-0.5-2.6c0-0.1-0.1-0.2-0.2-0.3c-0.1,0-0.3,0-0.4,0.1l-2,1.6c-0.7-0.1-1.3-0.2-2-0.2c-1.2,0-2.4,0.2-3.4,0.6
		L9.1,1.7C9,1.6,8.9,1.5,8.7,1.6c-0.1,0-0.2,0.2-0.3,0.3L7.9,5c-1.5,1.3-2.4,3.1-2.4,5.1c0,2.3,1.2,4.3,3.1,5.7
		c-3.1,8.6-0.1,15.7-0.1,15.7l0.3,0.8c0,0,1.9,3.5,4.6,5c-2,0.6-4.3,0.9-6,0.7c-1.3-0.2-2.8-0.6-3.6-1.1c-0.8-0.6-0.7-0.9-0.5-1.3
		c0.4-0.7,1-1.5,1.5-2.2c0.4-0.5,0.1-0.8-0.2-1c-0.5-0.3-0.8-0.2-1,0.1c-0.2,0.3-0.4,0.5-0.9,1.1c-0.4,0.5-1.2,1.7-1.5,2.3
		c-0.3,0.6-0.2,1,0.2,1.5c0.2,0.3,1.1,1,1.8,1.5c2.9,1.8,8.4,2.2,14.1,0.1c5.4-2.1,8.6-4.1,11.9-9.1c2.8-4.8,3.6-9.5,3.6-12.4
		C33,15.1,32.5,11.7,30.8,9.2z M9.3,8c0-0.2,0.2-0.3,0.4-0.2l1.8,0.3c0.2,0,0.3,0.2,0.2,0.4c0,0.1-0.2,0.3-0.3,0.3c0,0,0,0-0.1,0
		L9.5,8.4C9.4,8.3,9.2,8.2,9.3,8z M16.4,11.1c-0.4,0.6-1,1-1.7,1c-0.7,0-1.3-0.4-1.6-0.9c-0.3,0.5-1,0.9-1.6,0.9
		c-0.7,0-1.3-0.4-1.7-1c-0.1-0.1,0-0.3,0.1-0.4c0.1-0.1,0.3,0,0.4,0.1c0.2,0.4,0.7,0.7,1.2,0.7c0.7,0,1.3-0.6,1.3-1.3V9.9
		c0,0,0,0,0,0l-0.4-0.5C12.2,9.2,12.3,9,12.6,9h1c0.3,0,0.4,0.2,0.2,0.4l-0.4,0.5c0,0,0,0,0,0v0.3c0,0.7,0.6,1.3,1.3,1.3
		c0.5,0,0.9-0.3,1.2-0.7c0.1-0.1,0.3-0.2,0.4-0.1C16.4,10.8,16.5,10.9,16.4,11.1z M16.8,8.4L15,8.7c0,0,0,0-0.1,0
		c-0.1,0-0.3-0.1-0.3-0.3c0-0.2,0.1-0.3,0.2-0.4l1.8-0.3C16.8,7.7,17,7.8,17,8C17.1,8.2,16.9,8.3,16.8,8.4z M87.4,42.5
		c-0.1-0.1-0.2-0.2-0.2-0.3c0-0.1,0-0.1,0-0.2c0.1-0.1,0.3,0,0.4,0l0,0c0.1,0,0.2,0.1,0.4,0.1c0.2,0,0.5,0,0.8-0.1
		c0.2,0,0.6-0.1,0.8-0.2l0.1,0c0.2-0.1,0.4-0.1,0.6-0.1c0.2,0,0.4,0.2,0.5,0.3c0,0.1,0,0.1,0,0.2c-0.1,0.1-0.2,0.1-0.4,0.1
		c-0.2,0-0.4,0-0.6,0c-0.1,0-0.2,0-0.2,0c-0.3,0-0.5,0-0.8,0.1l-0.1,0c-0.2,0-0.3,0.1-0.4,0.1c-0.1,0-0.2,0.1-0.4,0.1
		c0,0-0.1,0-0.1,0C87.7,42.6,87.6,42.6,87.4,42.5z M91.4,43.1C91.4,43.1,91.3,43.1,91.4,43.1c-0.3,0-0.6,0.1-0.9,0.1l-0.1,0
		c-0.4,0-0.9,0.1-1.3,0.1c-0.4,0-0.7,0.1-1.1,0.1c-0.4,0-0.6,0-0.9-0.1c-0.1,0-0.1,0-0.2-0.1c-0.1,0-0.2-0.1-0.4,0
		c0,0-0.1,0.1-0.1,0.2c0,0.1,0,0.3,0.1,0.3c0.1,0.1,0.3,0.2,0.6,0.2c0,0,0,0,0.1,0c0.2,0,0.4,0,0.6-0.1l0.1,0c0.2,0,0.4,0,0.7-0.1
		l0.3,0c0.1,0.1,0.2,0.3,0.1,0.5c0,0.5-0.1,0.8-0.1,1.1c-0.1,0.3-0.3,0.9-0.5,1.2c-0.2,0.4-0.6,0.8-1,1.1c-0.4,0.3-0.6,0.4-0.9,0.5
		c-0.2,0.1-0.4,0.1-0.5,0.1c-0.2,0-0.2,0.1-0.2,0.2c0,0,0,0.1,0,0.1c0,0,0.1,0,0.1,0c0,0,0.1,0,0.1,0c0.2,0,0.5-0.1,0.9-0.2
		c0.4-0.2,0.8-0.4,1.1-0.6c0.4-0.3,0.6-0.6,0.9-0.9c0.3-0.4,0.4-0.7,0.6-1.2c0.1-0.5,0.2-0.8,0.2-0.9c0-0.1,0-0.1,0.1-0.2
		c0,0,0-0.1,0-0.1c0-0.1,0.1-0.3-0.1-0.4c-0.1-0.1-0.2-0.2-0.3-0.2c0.1,0,0.1,0,0.2,0c0.3,0,0.7-0.1,0.9-0.1c0.3,0,0.6,0,0.8,0.1
		l0,0c0,0,0.1,0,0.1,0c0.1,0,0.3,0.1,0.4,0c0,0,0.1-0.1,0.1-0.1c0-0.1-0.1-0.2-0.2-0.4C91.9,43.2,91.7,43.1,91.4,43.1z M100.9,43.5
		c-0.2,0-0.4,0-0.5,0.1c-0.1,0-0.1,0-0.2,0c-0.2,0-0.4,0.1-0.7,0.1c0-0.1,0-0.3,0-0.4c0-0.1,0-0.2,0-0.2c0-0.1,0-0.2,0-0.2
		c0-0.3,0.1-0.6-0.1-0.8c-0.2-0.3-0.4-0.4-0.6-0.5c-0.1,0-0.3-0.1-0.4,0c0,0,0,0.1,0,0.1c0,0.1,0.1,0.2,0.2,0.2
		c0.1,0.1,0.2,0.2,0.3,0.4c0.1,0.3,0.1,0.7,0.1,1.1l0,0.4v0c-0.2,0-0.3,0-0.5,0c-0.3,0-0.6,0-0.8,0c0,0,0,0-0.1,0c0-0.1,0-0.1,0-0.2
		c0-0.1,0-0.3,0-0.4c0-0.1,0-0.2,0-0.3c0-0.2,0-0.4-0.1-0.5c-0.1-0.2-0.2-0.3-0.4-0.4c-0.2-0.1-0.4-0.1-0.5,0c0,0,0,0.1,0,0.2
		c0,0.1,0.1,0.1,0.2,0.2c0.1,0.1,0.2,0.2,0.2,0.3c0,0.2,0.1,0.6,0.1,1v0.1c-0.1,0-0.2,0-0.3,0c-0.1,0-0.3,0-0.5,0
		c-0.5,0-0.7,0-1-0.1c0,0-0.1,0-0.1,0c-0.2-0.1-0.4-0.1-0.6,0c0,0-0.1,0.1-0.1,0.2c0,0.1,0.1,0.2,0.2,0.3c0.1,0.1,0.3,0.3,0.7,0.3
		c0.3,0,0.7,0,1.1-0.1l0.1,0c0.1,0,0.2,0,0.4,0c0,0.4,0,0.7,0,0.9l0,0c0,0.2,0,0.5,0.1,0.7c0.1,0.1,0.1,0.1,0.2,0.1c0,0,0,0,0,0
		c0.1,0,0.2,0,0.2-0.1c0.1-0.1,0.1-0.4,0.1-0.6c0,0,0-0.1,0-0.1c0-0.1,0-0.2,0-0.3c0-0.2,0-0.3,0-0.5c0-0.1,0-0.1,0-0.2c0,0,0,0,0,0
		c0.4,0,0.8-0.1,1.3-0.1c0,0.1,0,0.2,0,0.3c0,0.2,0,0.3,0,0.5c0,0.4-0.1,1.2-0.5,1.9c-0.3,0.5-0.6,0.9-1.1,1.1
		c-0.3,0.1-0.4,0.2-0.5,0.3c-0.1,0-0.1,0.1-0.1,0.2c0,0,0.1,0.1,0.1,0.1c0,0,0,0,0.1,0c0.3-0.1,0.6-0.3,1-0.5c0.3-0.2,0.7-0.5,1-1
		c0.3-0.4,0.4-0.7,0.6-1.2c0.1-0.4,0.2-0.8,0.2-1.4c0-0.1,0-0.3,0-0.4c0.1,0,0.2,0,0.3,0c0.2,0,0.5,0,0.7,0c0.4,0,0.6,0.1,0.8,0.1
		c0.1,0,0.2,0.1,0.3,0c0,0,0.1-0.1,0.1-0.1c0-0.1,0-0.2-0.1-0.3C101.3,43.6,101.1,43.5,100.9,43.5z M106.6,42.1c0,0,0,0.1,0,0.1
		c0,0.1,0.1,0.2,0.1,0.3c0.1,0.1,0.2,0.2,0.4,0.2c0,0,0.1,0,0.1,0c0.2-0.1,0.3-0.3,0.2-0.6c-0.1-0.2-0.2-0.4-0.4-0.6
		c-0.2-0.2-0.4-0.2-0.6-0.3c-0.1,0-0.3-0.1-0.3,0c0,0.1,0,0.2,0.2,0.3C106.3,41.7,106.5,41.9,106.6,42.1z M109.5,45.6L109.5,45.6
		c-0.4-0.2-0.5-0.3-0.9-0.4c-0.2-0.1-0.4-0.1-0.5-0.1c-0.2,0-0.3,0-0.3,0.1c0,0,0,0.1,0,0.1c0,0.1,0.1,0.1,0.3,0.2
		c0.4,0.1,0.8,0.3,1,0.6c0.2,0.2,0.4,0.5,0.5,0.6c0.1,0.1,0.2,0.2,0.3,0.3c0,0,0.1,0,0.1,0c0.1,0,0.1,0,0.2,0
		c0.2-0.1,0.3-0.4,0.1-0.6C110.1,45.9,109.9,45.8,109.5,45.6z M107.6,44.8c0.3-0.3,0.5-0.5,0.6-0.7c0,0,0-0.1,0.1-0.1
		c0.1-0.1,0.1-0.2,0.2-0.2l0.1,0c0.2,0,0.3,0,0.4-0.2c0-0.1,0.2-0.2,0-0.4c-0.1-0.2-0.3-0.3-0.4-0.3c-0.1-0.1-0.3-0.2-0.6-0.1
		c0,0-0.1,0-0.1,0c-0.1,0.1-0.3,0.2-0.5,0.2c-0.2,0-0.6,0.1-1,0.1c-0.3,0-0.6,0-0.8,0c-0.1,0-0.2-0.1-0.3-0.1
		c-0.2-0.1-0.4-0.2-0.6-0.1c-0.1,0-0.1,0.1-0.1,0.2c0,0.1,0.1,0.3,0.3,0.4c0.2,0.2,0.5,0.2,0.7,0.2c0.2,0,0.4-0.1,0.6-0.1
		c0,0,0.1,0,0.1,0c0.2,0,0.4-0.1,0.7-0.1l0.2,0c0.2,0,0.3-0.1,0.4,0c0,0-0.1,0.2-0.2,0.3l-0.1,0.1c-0.1,0.2-0.3,0.4-0.6,0.7
		c-0.3,0.4-0.6,0.6-0.9,0.8l0,0c-0.3,0.2-0.6,0.4-1,0.7c-0.4,0.2-0.7,0.4-1.3,0.7c-0.2,0.1-0.3,0.2-0.3,0.3c0.1,0.1,0.2,0.1,0.5,0
		c0.2-0.1,0.4-0.2,1-0.5l0.3-0.1c0.4-0.2,0.6-0.3,1-0.5l0.1-0.1c0.1-0.1,0.2-0.1,0.3-0.2c0.1,0.1,0.2,0.3,0.2,0.4c0,0.2,0,0.4,0,0.7
		c0,0.1,0,0.2,0,0.2c0,0.2,0,0.5,0,0.8c0,0.1,0,0.3,0,0.4c0,0.1,0,0.3,0.1,0.4c0.1,0.1,0.1,0.1,0.2,0.1c0,0,0,0,0,0
		c0.1,0,0.2,0,0.2-0.1c0.1-0.1,0.2-0.4,0.2-0.5c0-0.1,0-0.2,0-0.4c0-0.1,0-0.3,0-0.4l0-0.1c0-0.3,0-0.7,0-1v0c0-0.3,0-0.5-0.2-0.7
		c-0.1-0.1-0.2-0.1-0.2-0.2c0.2-0.2,0.4-0.3,0.5-0.5L107.6,44.8z M117.5,44.9c0-0.2,0.1-0.4,0.1-0.5l0,0c0.1-0.1,0.1-0.3,0.2-0.4
		c0-0.1,0.2-0.3,0-0.6c-0.1-0.2-0.3-0.4-0.4-0.5c-0.1-0.1-0.2-0.2-0.4,0c-0.1,0.1-0.4,0.2-0.7,0.2c-0.3,0-1,0.1-1.6,0.1l-0.2,0
		c-0.5,0-0.9,0-1.1,0c-0.2,0-0.2-0.1-0.4-0.2c-0.1-0.1-0.3-0.2-0.4-0.1c-0.1,0.1-0.1,0.4,0,0.6c0.2,0.3,0.4,0.4,0.6,0.4c0,0,0,0,0,0
		c0.2,0,0.7,0,1-0.1l0.3,0c0.2,0,0.5,0,0.7-0.1c0.3,0,0.5,0,0.7-0.1c0.3,0,0.7,0,0.8,0c0,0,0.1,0,0.2,0.1c0,0,0.1,0.1,0.1,0.2
		c0,0.2-0.1,0.8-0.1,1.2c0,0.1,0,0.2,0,0.4c0,0.3-0.1,0.5-0.1,0.8c0,0.1-0.1,0.1-0.1,0.1c-0.1,0-1.1,0-1.8,0c-0.7,0-1.3,0-1.5-0.1
		c-0.2,0-0.2-0.1-0.3-0.1l0,0c-0.1-0.1-0.2-0.1-0.4,0c-0.1,0.1-0.1,0.4,0.1,0.6c0.2,0.2,0.4,0.3,0.6,0.3c0.2,0,0.3,0,0.5,0l0.1,0
		c0.2,0,0.8,0,1.2-0.1l0.2,0c0.4,0,0.9-0.1,1.1,0c0.2,0,0.4,0.1,0.5,0.1c0.1,0,0.2,0.1,0.4,0.1c0.1,0,0.2,0,0.2-0.1
		c0.1-0.1,0.1-0.2,0.1-0.3c0-0.1-0.1-0.2-0.2-0.3c0,0,0,0-0.1,0c-0.1-0.1-0.2-0.1-0.2-0.1c0-0.3,0.1-0.9,0.1-1.2
		C117.4,45.1,117.5,45,117.5,44.9z M92.3,42.3c0.1,0,0.2-0.2,0.1-0.4c-0.1-0.2-0.4-0.3-0.6-0.4c-0.2-0.1-0.4-0.1-0.5-0.1
		c-0.1,0-0.1,0-0.2,0c0,0.1,0,0.1,0.1,0.2c0.2,0.2,0.4,0.3,0.6,0.5C91.9,42.3,92.1,42.4,92.3,42.3z M93,41.9c0.1,0,0.2-0.2,0.1-0.4
		c-0.1-0.2-0.4-0.3-0.6-0.4c-0.2-0.1-0.4-0.1-0.5-0.1c-0.1,0-0.1,0-0.2,0c0,0.1,0,0.1,0.1,0.2c0.3,0.1,0.5,0.2,0.6,0.4
		C92.7,41.9,92.9,42,93,41.9z M101,43c0.1,0,0.2-0.2,0.1-0.4c-0.1-0.2-0.4-0.3-0.6-0.4c-0.2-0.1-0.4-0.1-0.5-0.1c0,0-0.1,0-0.2,0
		c0,0.1,0,0.1,0.1,0.2c0.2,0.2,0.4,0.3,0.6,0.4C100.6,42.9,100.8,43,101,43z M101.7,42.6c0.1,0,0.2-0.2,0.1-0.4
		c-0.1-0.2-0.4-0.3-0.6-0.4c-0.2-0.1-0.4-0.1-0.5-0.1c0,0-0.1,0-0.2,0c0,0.1,0,0.1,0.1,0.2c0.3,0.1,0.5,0.2,0.6,0.4
		C101.4,42.5,101.6,42.6,101.7,42.6z"/>
</g>
</svg>
